<svg version="1.1" id="Слой_1" xmlns="http://www.w3.org/2000/svg" xmlns:xlink="http://www.w3.org/1999/xlink" x="0px" y="0px"
	 viewBox="0 0 80 80" style="enable-background:new 0 0 80 80;" xml:space="preserve">
	<style type="text/css">
		.st0{fill:url(#Background);}
	</style>
	<linearGradient id="Background" gradientUnits="userSpaceOnUse" x1="-282.3295" y1="122.1099" x2="-434.3725" y2="120.7566" gradientTransform="matrix(0.3737 -0.3162 0.3098 0.3661 139.1089 -115.1314)">
		<stop  offset="0" style="stop-color:#B8E0E9"/>
		<stop  offset="0.1189" style="stop-color:#B5D7E7"/>
		<stop  offset="0.693" style="stop-color:#A6B4DC"/>
		<stop  offset="1" style="stop-color:#A0A6D8"/>
	</linearGradient>
	<path id="Background" style="fill:url(#Background);" d="M12.2,24.1c-4.1,2-6.2,6.8-7.4,9.4C0.7,42.8,3.7,56.5,11.9,61c6.7,3.6,13.4-0.9,23.9,4.7c2.4,1.3,2.4,1.7,4.4,2.5c6.9,2.8,14.2,0.9,20.6-0.9c5.3-1.4,7.9-2.2,9.8-3.5c7.7-5.5,10-16.9,8.3-24.6c-0.3-1.4-0.7-2.4-0.7-2.4c-0.9-2.2-1.9-2.5-3.6-5.1c-1.1-1.6-1.7-3-2.1-3.8c-2.4-5.2-1.9-7.6-2.9-10.8c-0.1-0.4-0.6-1.9-1.5-3.3c-2.7-4.6-7.1-6.2-8.5-6.6c-0.8-0.2-3.4-1-7.5-0.6c-8.4,0.9-9,5.6-17.3,7.3c-6,1.3-10-0.2-13.2,3.3c-0.8,0.9-1.2,1.7-2.6,3C16.4,22.8,14.1,23.2,12.2,24.1z"/>
</svg>
